<?xml version="1.0" standalone="no"?>
<!DOCTYPE svg PUBLIC "-//W3C//DTD SVG 20010904//EN"
 "http://www.w3.org/TR/2001/REC-SVG-20010904/DTD/svg10.dtd">
<svg version="1.0" xmlns="http://www.w3.org/2000/svg"
 width="400.000000pt" height="400.000000pt" viewBox="0 0 400.000000 400.000000"
 preserveAspectRatio="xMidYMid meet">
<metadata>
Created by potrace 1.11, written by Peter Selinger 2001-2013
</metadata>
<g transform="translate(0.000000,400.000000) scale(0.100000,-0.100000)"
fill="#000000" stroke="none">
<path d="M1307 3283 c-4 -3 -7 -37 -7 -75 l0 -68 80 0 80 0 0 75 0 75 -73 0
c-41 0 -77 -3 -80 -7z"/>
<path d="M2136 3282 c-3 -5 23 -6 57 -4 87 5 94 10 15 11 -37 1 -69 -3 -72 -7z"/>
<path d="M1770 3189 c0 -5 5 -7 10 -4 6 3 10 8 10 11 0 2 -4 4 -10 4 -5 0 -10
-5 -10 -11z"/>
<path d="M2138 3153 c7 -3 16 -2 19 1 4 3 -2 6 -13 5 -11 0 -14 -3 -6 -6z"/>
<path d="M2535 2165 c-16 -15 -25 -36 -25 -55 0 -28 -3 -30 -34 -30 -38 0 -47
-7 -37 -30 3 -9 19 -15 36 -15 l30 0 3 -112 3 -113 -115 0 c-99 0 -116 2 -125
18 -6 9 -11 12 -11 6 0 -6 -10 -10 -22 -8 -81 11 -107 11 -105 1 2 -13 -28
-13 -443 -9 l-229 2 -3 73 -3 72 -75 0 -75 0 -3 -77 -3 -78 -99 0 c-89 0 -100
2 -100 18 0 11 -3 13 -8 5 -5 -7 -96 -13 -294 -18 l-288 -8 0 -433 0 -434
1498 2 1497 3 0 430 0 430 -235 3 -235 2 6 88 c5 92 18 124 56 141 36 17 51
13 69 -14 9 -14 25 -25 36 -25 18 0 20 4 14 33 -3 17 -14 38 -23 45 -26 19
-97 15 -126 -8 -25 -20 -25 -20 -30 1 -4 13 -12 19 -24 17 -16 -3 -18 -15 -16
-141 l2 -137 -77 0 -77 0 30 20 c64 42 83 129 42 191 -77 115 -237 67 -237
-71 0 -50 20 -91 57 -119 l28 -20 -102 -1 -103 0 0 115 0 115 50 0 c43 0 50 3
50 20 0 17 -7 20 -51 20 -49 0 -50 1 -47 28 3 23 8 27 36 28 37 0 57 21 40 41
-18 22 -76 16 -103 -12z m324 -141 c27 -22 31 -33 31 -73 0 -58 -20 -88 -64
-97 -42 -7 -71 7 -91 46 -19 37 -19 63 1 101 27 53 77 62 123 23z m-1569 -503
c48 -34 70 -79 70 -143 0 -68 -16 -104 -62 -143 -29 -24 -38 -27 -90 -23 -90
7 -138 64 -138 165 0 132 123 213 220 144z m728 -27 l3 -51 38 10 c32 9 44 7
72 -9 19 -11 40 -31 46 -45 19 -37 16 -109 -7 -146 -21 -36 -77 -57 -113 -44
-12 5 -37 6 -54 4 l-33 -5 0 164 c0 91 3 168 7 172 4 4 14 5 23 4 11 -2 16
-18 18 -54z m872 -38 l0 -94 48 44 c33 31 56 44 77 44 l29 0 -53 -54 c-61 -62
-62 -52 16 -136 29 -31 38 -47 30 -52 -21 -13 -49 3 -98 56 l-48 51 -1 -52 c0
-51 -10 -66 -37 -55 -10 3 -13 46 -13 166 0 90 3 166 7 169 3 4 15 7 25 7 16
0 18 -10 18 -94z m-317 35 c5 0 7 -11 5 -23 -3 -20 -10 -23 -51 -25 -49 -2
-66 10 -54 41 5 12 48 16 100 7z m-1061 -70 l32 -28 -24 -13 c-19 -10 -24 -10
-32 4 -5 9 -22 16 -38 16 -41 0 -43 -37 -2 -46 80 -17 108 -43 96 -89 -9 -36
-41 -55 -92 -55 -35 0 -49 6 -73 30 -17 16 -28 34 -24 40 10 16 41 11 60 -10
21 -23 57 -26 75 -5 17 20 6 31 -44 44 -24 6 -52 18 -60 27 -25 24 -20 69 10
93 37 29 77 27 116 -8z m218 3 c11 -11 15 -39 15 -117 0 -95 -1 -102 -20 -102
-18 0 -20 8 -25 95 -5 86 -7 95 -25 98 -43 6 -59 -21 -63 -102 -3 -60 -8 -78
-22 -86 -9 -5 -20 -6 -24 -3 -3 3 -6 57 -6 120 l0 113 25 0 c14 0 25 -4 25 -9
0 -6 12 -3 28 5 30 16 69 11 92 -12z m175 12 c38 -16 41 -23 50 -139 5 -64 3
-78 -10 -83 -8 -4 -21 -1 -28 4 -8 7 -18 7 -27 2 -8 -6 -34 -10 -57 -10 -48 0
-73 25 -73 72 0 47 51 78 127 78 21 0 22 3 13 20 -14 26 -65 27 -81 1 -11 -17
-49 -19 -49 -2 0 15 34 53 54 61 30 12 42 12 81 -4z m488 -17 c9 -12 17 -30
17 -40 0 -27 -46 -26 -53 1 -3 13 -13 20 -29 20 -50 -1 -73 -41 -77 -135 -1
-49 -13 -67 -37 -58 -9 3 -12 35 -10 116 2 99 4 112 20 115 10 2 23 -1 28 -6
6 -6 19 -5 36 4 34 18 82 10 105 -17z m75 -61 c3 -94 14 -115 56 -104 31 8 39
26 45 116 5 68 8 75 29 78 22 3 22 2 22 -117 l0 -121 -25 0 c-14 0 -25 4 -25
9 0 5 -17 3 -37 -4 -80 -28 -113 14 -113 142 0 73 7 95 29 91 13 -3 17 -19 19
-90z m318 73 c36 -22 51 -59 26 -68 -10 -4 -21 2 -30 15 -17 26 -63 30 -82 7
-18 -21 -18 -98 -1 -118 19 -23 50 -21 77 4 23 21 54 20 54 -1 0 -6 -12 -22
-26 -35 -20 -18 -38 -25 -68 -25 -68 1 -96 36 -96 122 0 60 11 80 55 103 39
19 53 19 91 -4z"/>
<path d="M1190 1483 c-71 -26 -89 -145 -29 -199 31 -28 87 -24 115 9 46 54 40
135 -14 177 -25 20 -44 23 -72 13z"/>
<path d="M2035 1390 c-39 -44 -12 -140 40 -140 37 0 57 23 62 72 4 37 2 49
-16 67 -26 26 -62 27 -86 1z"/>
<path d="M1848 1313 c-27 -4 -45 -33 -33 -53 12 -19 53 -10 74 16 11 15 18 30
15 35 -5 9 -8 9 -56 2z"/>
<path d="M1881 2054 c0 -11 3 -14 6 -6 3 7 2 16 -1 19 -3 4 -6 -2 -5 -13z"/>
<path d="M1791 2004 c0 -11 3 -14 6 -6 3 7 2 16 -1 19 -3 4 -6 -2 -5 -13z"/>
<path d="M1811 1984 c0 -11 3 -14 6 -6 3 7 2 16 -1 19 -3 4 -6 -2 -5 -13z"/>
<path d="M1505 1950 c-3 -5 -1 -10 4 -10 6 0 11 5 11 10 0 6 -2 10 -4 10 -3 0
-8 -4 -11 -10z"/>
<path d="M2135 1955 c23 -8 124 -11 119 -3 -3 4 -33 8 -67 7 -34 0 -57 -2 -52
-4z"/>
<path d="M1553 1943 c9 -2 23 -2 30 0 6 3 -1 5 -18 5 -16 0 -22 -2 -12 -5z"/>
<path d="M2130 1930 c0 -5 5 -10 10 -10 6 0 10 5 10 10 0 6 -4 10 -10 10 -5 0
-10 -4 -10 -10z"/>
</g>
</svg>
